<svg width="512" height="512" xmlns="http://www.w3.org/2000/svg" xmlns:svg="http://www.w3.org/2000/svg">
 <title>ionicons-v5-q</title>
 <g class="layer">
  <title>Layer 1</title>
  <path fill="#ff7f00" id="svg_1" d="m254.5,368a16.35,16 0 0 1 -8.11369,-2.11l-143.12382,-80.05a8.175,8 0 0 0 -12.2625,6.94l0,75.22a16.35,16 0 0 0 8.41003,14l147.15,80a16.35,16 0 0 0 15.87994,0l147.15,-80a16.35,16 0 0 0 8.41003,-14l0,-75.22a8.175,8 0 0 0 -12.2625,-6.94l-143.12382,80.05a16.35,16 0 0 1 -8.11369,2.11z"/>
  <path fill="#3f3f3f" id="svg_2" d="m493.92,195.5s0,-0.08 0,-0.11a16,16 0 0 0 -8,-12.28l-224,-128a16,16 0 0 0 -15.88,0l-224,128a16,16 0 0 0 0,27.78l224,128a16,16 0 0 0 15.88,0l197.08,-112.61a2,2 0 0 1 3,1.74l0,144.53c0,8.61 6.62,16 15.23,16.43a16,16 0 0 0 16.77,-15.98l0,-176a14.76,14.76 0 0 0 -0.08,-1.5z"/>
 </g>
</svg>